# Made in Blockbench 4.12.4
mtllib train_station_clock.mtl

o Plane
v 0.7250000000000001 1 0.25000000000000006
v 0.725 1 0.75
v 1 0.725 0.7500000000000001
v 1 0.725 0.2500000000000001
v 0.7250000000000001 0 0.25000000000000006
v 0.725 0 0.75
v 0.2749999999999999 0 0.75
v 0.275 0 0.24999999999999994
v 0.06250000000000006 0.699112 0.3124999999999999
v 0.06250000000000006 0.300888 0.3124999999999999
v 0.06250000000000006 0.300888 0.2499999999999999
v 0.06250000000000006 0.699112 0.2499999999999999
v 0.275 1 0.24999999999999994
v 0.2749999999999999 1 0.75
v 0.6991120000000001 0.9375 0.25000000000000006
v 0.30088800000000004 0.9375 0.24999999999999994
v 5.551115123125783e-17 0.275 0.2499999999999999
v 5.551115123125783e-17 0.725 0.2499999999999999
v 0.30088800000000004 0.9375 0.31249999999999994
v 0.6991120000000001 0.9375 0.31250000000000006
v 0.546875 0.546875 0.3125
v 0.45312500000000006 0.546875 0.3125
v 0.45312500000000006 0.453125 0.3125
v 0.062499999999999944 0.699112 0.7499999999999999
v 0.062499999999999944 0.300888 0.7499999999999999
v 0.062499999999999944 0.300888 0.6874999999999999
v 0.062499999999999944 0.699112 0.6874999999999999
v 0.30088799999999993 0.9375 0.75
v 0.699112 0.9375 0.75
v 0 0.725 0.7499999999999999
v 0 0.275 0.7499999999999999
v 0.30088799999999993 0.9375 0.6875
v 0.699112 0.9375 0.6875
v 0.45312499999999994 0.546875 0.6875
v 0.546875 0.546875 0.6875
v 0.45312499999999994 0.453125 0.6875
v 0.9375 0.699112 0.2500000000000001
v 0.9375 0.300888 0.2500000000000001
v 0.9375 0.300888 0.3125000000000001
v 0.9375 0.699112 0.3125000000000001
v 1 0.275 0.2500000000000001
v 0.546875 0.453125 0.3125
v 0.546875 0.546875 0.275
v 0.546875 0.453125 0.275
v 0.9375 0.699112 0.6875000000000001
v 0.9375 0.300888 0.6875000000000001
v 0.9375 0.300888 0.7500000000000001
v 0.9375 0.699112 0.7500000000000001
v 1 0.275 0.7500000000000001
v 0.546875 0.453125 0.6875
v 0.546875 0.546875 0.725
v 0.546875 0.453125 0.725
v 0.30088800000000004 0.0625 0.24999999999999994
v 0.6991120000000001 0.0625 0.25000000000000006
v 0.30088800000000004 0.0625 0.31249999999999994
v 0.6991120000000001 0.0625 0.31250000000000006
v 0.45312500000000006 0.546875 0.275
v 0.699112 0.0625 0.75
v 0.30088799999999993 0.0625 0.75
v 0.30088799999999993 0.0625 0.6875
v 0.699112 0.0625 0.6875
v 0.45312499999999994 0.546875 0.725
v 0.45312500000000006 0.453125 0.275
v 0.45312499999999994 0.453125 0.725
vt 0.5 0.7499999999999982
vt 0 0.7499999999999982
vt 0 0.36108749999999823
vt 0.5 0.36108749999999823
vt 0.5 0.7499999999999986
vt 0 0.7499999999999986
vt 0 0.2999999999999986
vt 0.5 0.2999999999999986
vt 0.4375 1
vt 0.4375 0.601775
vt 0.5 0.601775
vt 0.5 1
vt 0.5 0.7499999999999986
vt 0 0.7499999999999986
vt 0 0.2999999999999986
vt 0.5 0.2999999999999986
vt 1.4432899320127035e-15 1
vt 0.025887500000001396 0.9375
vt 0.42411250000000145 0.9375
vt 0.4500000000000015 1
vt 0.4375 0.9741124999999986
vt 0.4375 0.5758874999999986
vt 0.5 0.5499999999999986
vt 0.5 0.9999999999999986
vt 0.4375 0.6628625
vt 0.5 0.6628625
vt 0.5 1
vt 0.4375 1
vt 0.4375 1
vt 0.4375 0.601775
vt 0.5 0.601775
vt 0.5 1
vt 0.499999400622123 0.6110912703473989
vt 0.499999400622123 1
vt 0.437499999999997 0.9741110529738075
vt 0.437499999999997 0.6369802173735913
vt 0.5624999999999982 0.875
vt 0.7147374999999982 0.484375
vt 0.8084874999999982 0.484375
vt 0.9607249999999983 0.875
vt 0.5625 0.7227625000000018
vt 0.5625 0.6290125000000018
vt 0.953125 0.4767750000000017
vt 0.953125 0.8750000000000018
vt 0.8461916337629234 0.31250000000000233
vt 0.5625 0.0038202242384968166
vt 0.9817423488046622 0.0038202242384967056
vt 0.4375 1
vt 0.4375 0.601775
vt 0.5 0.601775
vt 0.5 1
vt 0.4500000000000015 1
vt 1.4432899320127035e-15 1
vt 0.025887500000001396 0.9375
vt 0.42411250000000145 0.9375
vt 0.4375 0.9999999999999986
vt 0.4375 0.5499999999999986
vt 0.5 0.5758874999999986
vt 0.5 0.9741124999999986
vt 0.5 0.6628625
vt 0.5 1
vt 0.4375 1
vt 0.4375 0.6628625
vt 0.5 1
vt 0.4375 1
vt 0.4375 0.601775
vt 0.5 0.601775
vt 0.06249999999999867 1
vt 0.08838894702619116 0.937500599377874
vt 0.42551978262640733 0.937500599377874
vt 0.4514087296525999 1
vt 0.9607249999999983 0.875
vt 0.5624999999999982 0.875
vt 0.7147374999999982 0.484375
vt 0.8084874999999982 0.484375
vt 0.5625 0.8750000000000018
vt 0.5625 0.4767750000000017
vt 0.953125 0.6290125000000018
vt 0.953125 0.7227625000000018
vt 0.8711797757615055 0.4375000000000022
vt 0.5625 0.30194928495826323
vt 0.8711797757615056 0.018257651195339952
vt 0.4375 1
vt 0.4375 0.601775
vt 0.5 0.601775
vt 0.5 1
vt 0.5 0.36108749999999823
vt 0 0.36108749999999823
vt 0 0.7499999999999982
vt 0.5 0.7499999999999982
vt 0.4375 0.9999999999999986
vt 0.4375 0.5499999999999986
vt 0.5 0.5758874999999986
vt 0.5 0.9741124999999986
vt 0.5 0.6628625
vt 0.5 1
vt 0.4375 1
vt 0.4375 0.6628625
vt 0.06249999999999867 1
vt 0.08838894702619116 0.937500599377874
vt 0.42551978262640733 0.937500599377874
vt 0.4514087296525999 1
vt 0.5625 0.8750000000000018
vt 0.5625 0.4767750000000017
vt 0.953125 0.6290125000000018
vt 0.953125 0.7227625000000018
vt 0.037500000000000006 0.125
vt 0 0.125
vt 0 0.03125
vt 0.037500000000000006 0.03125
vt 0.8711797757615055 0.4375000000000022
vt 0.5625 0.30194928495826323
vt 0.8711797757615056 0.018257651195339952
vt 0.5 0.36108749999999823
vt 0 0.36108749999999823
vt 0 0.7499999999999982
vt 0.5 0.7499999999999982
vt 0.4375 1
vt 0.4375 0.601775
vt 0.5 0.601775
vt 0.5 1
vt 0.4375 0.9741124999999986
vt 0.4375 0.5758874999999986
vt 0.5 0.5499999999999986
vt 0.5 0.9999999999999986
vt 0.4375 0.6628625
vt 0.5 0.6628625
vt 0.5 1
vt 0.4375 1
vt 0.499999400622123 0.6110912703473989
vt 0.499999400622123 1
vt 0.437499999999997 0.9741110529738075
vt 0.437499999999997 0.6369802173735913
vt 0.5625 0.7227625000000018
vt 0.5625 0.6290125000000018
vt 0.953125 0.4767750000000017
vt 0.953125 0.8750000000000018
vt 0.03750000000000142 0.125
vt 1.4155343563970746e-15 0.125
vt 1.4155343563970746e-15 0.03125
vt 0.03750000000000142 0.03125
vt 0.8461916337629234 0.31250000000000233
vt 0.5625 0.0038202242384968166
vt 0.9817423488046622 0.0038202242384967056
vt 0.5 0.7499999999999982
vt 0 0.7499999999999982
vt 0 0.36108749999999823
vt 0.5 0.36108749999999823
vt 0.5 0.2999999999999986
vt 0 0.2999999999999986
vt 0 0.7499999999999986
vt 0.5 0.7499999999999986
vt 1.4432899320127035e-15 0.9375
vt 0.4500000000000015 0.9375
vt 0.42411250000000145 1
vt 0.025887500000001396 1
vt 0.4375 1
vt 0.4375 0.6628625
vt 0.5 0.6628625
vt 0.5 1
vt 0.4375 0.601775
vt 0.5 0.601775
vt 0.5 1
vt 0.4375 1
vt 0.4514087296525999 0.937500599377874
vt 0.42551978262640744 1
vt 0.08838894702619127 1
vt 0.06249999999999878 0.937500599377874
vt 0.5624999999999982 0.484375
vt 0.9607249999999983 0.484375
vt 0.8084874999999982 0.875
vt 0.7147374999999982 0.875
vt 0 0.125
vt 0 0.03125
vt 0.037500000000000006 0.03125
vt 0.037500000000000006 0.125
vt 0.5625000000000012 0.018257651195339286
vt 0.8711797757615068 0.15380836623707794
vt 0.5625000000000013 0.43750000000000133
vt 0.4500000000000015 0.9375
vt 0.42411250000000145 1
vt 0.025887500000001396 1
vt 1.4432899320127035e-15 0.9375
vt 0.5 1
vt 0.4375 1
vt 0.4375 0.6628625
vt 0.5 0.6628625
vt 0.5 0.601775
vt 0.5 1
vt 0.4375 1
vt 0.4375 0.601775
vt 0.4374999999999999 1
vt 0.4374999999999999 0.6110912703473989
vt 0.4999994006221259 0.6369802173735913
vt 0.4999994006221259 0.9741110529738075
vt 0.9607249999999983 0.484375
vt 0.8084874999999982 0.875
vt 0.7147374999999982 0.875
vt 0.5624999999999982 0.484375
vt 0.03750000000000142 0.125
vt 1.4155343563970746e-15 0.125
vt 1.4155343563970746e-15 0.03125
vt 0.03750000000000142 0.03125
vt 0.6980507150417387 0.003820224238493153
vt 0.9817423488046622 0.31249999999999867
vt 0.5625 0.3124999999999988
vt 0.5 0.7499999999999986
vt 0 0.7499999999999986
vt 0 0.2999999999999986
vt 0.5 0.2999999999999986
vt 0.5 1
vt 0.4375 1
vt 0.4375 0.6628625
vt 0.5 0.6628625
vt 0.4374999999999999 1
vt 0.4374999999999999 0.6110912703473989
vt 0.4999994006221259 0.6369802173735913
vt 0.4999994006221259 0.9741110529738075
vt 0.03750000000000142 0.125
vt 1.4155343563970746e-15 0.125
vt 1.4155343563970746e-15 0.03125
vt 0.03750000000000142 0.03125
vt 0 0.03125
vt 0.037500000000000006 0.03125
vt 0.037500000000000006 0.125
vt 0 0.125
vt 0.09375 0.125
vt 0 0.125
vt 0 0.03125
vt 0.09375 0.03125
vt 0.6980507150417387 0.003820224238493153
vt 0.9817423488046622 0.31249999999999867
vt 0.5625 0.3124999999999988
vt 0.4375 1
vt 0.4375 0.6628625
vt 0.5 0.6628625
vt 0.5 1
vt 0.4514087296525999 0.937500599377874
vt 0.42551978262640744 1
vt 0.08838894702619127 1
vt 0.06249999999999878 0.937500599377874
vt 0.037500000000000006 0.125
vt 0 0.125
vt 0 0.03125
vt 0.037500000000000006 0.03125
vt 0.03750000000000142 0.03125
vt 0.03750000000000142 0.125
vt 1.4155343563970746e-15 0.125
vt 1.4155343563970746e-15 0.03125
vt 0 0.125
vt 0 0.03125
vt 0.09375 0.03125
vt 0.09375 0.125
vt 0.5625000000000012 0.018257651195339286
vt 0.8711797757615068 0.15380836623707794
vt 0.5625000000000013 0.43750000000000133
vn 0.7071067811865476 0.7071067811865476 1.5700924586837752e-16
vn 0 -1 0
vn 1 0 2.220446049250313e-16
vn 0 1 0
vn 2.220446049250313e-16 0 -1
vn 2.220446049250313e-16 0 -1
vn 0.7071067811865476 -0.7071067811865476 1.5700924586837752e-16
vn 0 -1 0
vn 2.220446049250313e-16 0 -1
vn 2.220446049250313e-16 0 -1
vn 2.220446049250313e-16 0 -1
vn 2.220446049250313e-16 0 -1
vn 1 0 2.220446049250313e-16
vn -2.220446049250313e-16 0 1
vn -2.220446049250313e-16 0 1
vn 0.7071067811865476 -0.7071067811865476 1.5700924586837752e-16
vn 0 -1 0
vn -2.220446049250313e-16 0 1
vn -2.220446049250313e-16 0 1
vn -2.220446049250313e-16 0 1
vn -2.220446049250313e-16 0 1
vn -1 0 -2.220446049250313e-16
vn -0.7071067811865476 -0.7071067811865476 -1.5700924586837752e-16
vn 2.220446049250313e-16 0 -1
vn -0.7071067811865476 -0.7071067811865476 -1.5700924586837752e-16
vn 2.220446049250313e-16 0 -1
vn 2.220446049250313e-16 0 -1
vn 1 0 2.220446049250313e-16
vn 2.220446049250313e-16 0 -1
vn -0.7071067811865476 0.7071067811865476 -1.5700924586837752e-16
vn -1 0 -2.220446049250313e-16
vn -2.220446049250313e-16 0 1
vn -0.7071067811865476 -0.7071067811865476 -1.5700924586837752e-16
vn -2.220446049250313e-16 0 1
vn -2.220446049250313e-16 0 1
vn 1 0 2.220446049250313e-16
vn -2.220446049250313e-16 0 1
vn 0.7071067811865476 -0.7071067811865476 1.5700924586837752e-16
vn -1 0 -2.220446049250313e-16
vn 2.220446049250313e-16 0 -1
vn 0.7071067811865476 0.7071067811865476 1.5700924586837752e-16
vn 0 1 0
vn 2.220446049250313e-16 0 -1
vn 2.220446049250313e-16 0 -1
vn 0 1 0
vn 2.220446049250313e-16 0 -1
vn -2.220446049250313e-16 0 1
vn 0.7071067811865476 0.7071067811865476 1.5700924586837752e-16
vn 0 1 0
vn -2.220446049250313e-16 0 1
vn -2.220446049250313e-16 0 1
vn 0 1 0
vn -2.220446049250313e-16 0 1
vn 1 0 2.220446049250313e-16
vn -0.7071067811865476 0.7071067811865476 -1.5700924586837752e-16
vn 2.220446049250313e-16 0 -1
vn -1 0 -2.220446049250313e-16
vn 0 -1 0
vn 2.220446049250313e-16 0 -1
vn 2.220446049250313e-16 0 -1
vn -0.7071067811865476 0.7071067811865476 -1.5700924586837752e-16
vn -2.220446049250313e-16 0 1
vn -1 0 -2.220446049250313e-16
vn 0 -1 0
vn -2.220446049250313e-16 0 1
vn -2.220446049250313e-16 0 1
usemtl m_f1198de4-4ae2-56d4-ddf7-ded3cd4f5eec
f 1/1/1 2/2/1 3/3/1 4/4/1
f 5/5/2 6/6/2 7/7/2 8/8/2
f 9/9/3 10/10/3 11/11/3 12/12/3
f 13/13/4 14/14/4 2/15/4 1/16/4
f 1/17/5 15/18/5 16/19/5 13/20/5
f 12/21/6 11/22/6 17/23/6 18/24/6
f 9/25/7 12/26/7 16/27/7 19/28/7
f 20/29/8 19/30/8 16/31/8 15/32/8
f 18/33/9 13/34/9 16/35/9 12/36/9
f 20/37/10 21/38/10 22/39/10 19/40/10
f 22/41/11 23/42/11 10/43/11 9/44/11
f 19/45/12 22/46/12 9/47/12
f 24/48/13 25/49/13 26/50/13 27/51/13
f 2/52/14 14/53/14 28/54/14 29/55/14
f 30/56/15 31/57/15 25/58/15 24/59/15
f 27/60/16 32/61/16 28/62/16 24/63/16
f 33/64/17 29/65/17 28/66/17 32/67/17
f 30/68/18 24/69/18 28/70/18 14/71/18
f 33/72/19 32/73/19 34/74/19 35/75/19
f 27/76/20 26/77/20 36/78/20 34/79/20
f 32/80/21 27/81/21 34/82/21
f 37/83/22 38/84/22 39/85/22 40/86/22
f 8/87/23 7/88/23 31/89/23 17/90/23
f 4/91/24 41/92/24 38/93/24 37/94/24
f 40/95/25 20/96/25 15/97/25 37/98/25
f 4/99/26 37/100/26 15/101/26 1/102/26
f 40/103/27 39/104/27 42/105/27 21/106/27
f 43/107/28 21/108/28 42/109/28 44/110/28
f 20/111/29 40/112/29 21/113/29
f 18/114/30 30/115/30 14/116/30 13/117/30
f 45/118/31 46/119/31 47/120/31 48/121/31
f 48/122/32 47/123/32 49/124/32 3/125/32
f 45/126/33 48/127/33 29/128/33 33/129/33
f 3/130/34 2/131/34 29/132/34 48/133/34
f 35/134/35 50/135/35 46/136/35 45/137/35
f 35/138/36 51/139/36 52/140/36 50/141/36
f 33/142/37 35/143/37 45/144/37
f 41/145/38 49/146/38 6/147/38 5/148/38
f 17/149/39 31/150/39 30/151/39 18/152/39
f 5/153/40 8/154/40 53/155/40 54/156/40
f 10/157/41 55/158/41 53/159/41 11/160/41
f 56/161/42 54/162/42 53/163/42 55/164/42
f 17/165/43 11/166/43 53/167/43 8/168/43
f 56/169/44 55/170/44 23/171/44 42/172/44
f 22/173/45 21/174/45 43/175/45 57/176/45
f 55/177/46 10/178/46 23/179/46
f 6/180/47 58/181/47 59/182/47 7/183/47
f 26/184/48 25/185/48 59/186/48 60/187/48
f 61/188/49 60/189/49 59/190/49 58/191/49
f 31/192/50 7/193/50 59/194/50 25/195/50
f 61/196/51 50/197/51 36/198/51 60/199/51
f 34/200/52 62/201/52 51/202/52 35/203/52
f 60/204/53 36/205/53 26/206/53
f 4/207/54 3/208/54 49/209/54 41/210/54
f 39/211/55 38/212/55 54/213/55 56/214/55
f 41/215/56 5/216/56 54/217/56 38/218/56
f 22/219/57 57/220/57 63/221/57 23/222/57
f 23/223/58 63/224/58 44/225/58 42/226/58
f 57/227/59 43/228/59 44/229/59 63/230/59
f 56/231/60 42/232/60 39/233/60
f 46/234/61 61/235/61 58/236/61 47/237/61
f 49/238/62 47/239/62 58/240/62 6/241/62
f 62/242/63 34/243/63 36/244/63 64/245/63
f 36/246/64 50/247/64 52/248/64 64/249/64
f 62/250/65 64/251/65 52/252/65 51/253/65
f 61/254/66 46/255/66 50/256/66
o Plane.002
v 0.15625000000000006 0.53125 0.29999999999999993
v 0.15625000000000006 0.46875 0.29999999999999993
v 0.06250000000000006 0.46875 0.2999999999999999
v 0.06250000000000006 0.53125 0.2999999999999999
v 0.9375 0.53125 0.3000000000000001
v 0.9375 0.46875 0.3000000000000001
v 0.84375 0.46875 0.30000000000000004
v 0.84375 0.53125 0.30000000000000004
v 0.53125 0.9375 0.3
v 0.53125 0.84375 0.3
v 0.46875000000000006 0.84375 0.3
v 0.46875000000000006 0.9375 0.3
v 0.53125 0.15625 0.3
v 0.53125 0.0625 0.3
v 0.46875000000000006 0.0625 0.3
v 0.46875000000000006 0.15625 0.3
v 0.07250000000000006 0.276831 0.29999999999999993
v 0.12553300000000006 0.329864 0.29999999999999993
v 0.16972800000000005 0.285669 0.29999999999999993
v 0.11669500000000005 0.232636 0.29999999999999993
v 0.27683100000000005 0.9275 0.29999999999999993
v 0.32986400000000005 0.874467 0.29999999999999993
v 0.28566900000000006 0.830273 0.29999999999999993
v 0.23263600000000006 0.8833059999999999 0.29999999999999993
v 0.7231690000000001 0.07250000000000001 0.30000000000000004
v 0.6701360000000001 0.125533 0.30000000000000004
v 0.714331 0.16972700000000002 0.30000000000000004
v 0.767364 0.11669400000000002 0.30000000000000004
v 0.9275 0.723169 0.30000000000000004
v 0.8744670000000001 0.6701360000000001 0.30000000000000004
v 0.8302720000000001 0.714331 0.30000000000000004
v 0.883306 0.7673639999999999 0.30000000000000004
v 0.11669500000000005 0.7673639999999999 0.29999999999999993
v 0.16972800000000005 0.714331 0.29999999999999993
v 0.12553300000000006 0.6701360000000001 0.29999999999999993
v 0.07250000000000006 0.723169 0.29999999999999993
v 0.767364 0.8833059999999999 0.30000000000000004
v 0.714331 0.830272 0.30000000000000004
v 0.6701360000000001 0.874467 0.30000000000000004
v 0.7231690000000001 0.9275 0.30000000000000004
v 0.23263600000000006 0.11669400000000002 0.29999999999999993
v 0.28566900000000006 0.16972700000000002 0.29999999999999993
v 0.32986400000000005 0.125533 0.29999999999999993
v 0.27683100000000005 0.07250000000000001 0.29999999999999993
v 0.883305 0.232636 0.30000000000000004
v 0.830273 0.285669 0.30000000000000004
v 0.8744670000000001 0.329864 0.30000000000000004
v 0.9275 0.276831 0.30000000000000004
v 0.84375 0.53125 0.7000000000000001
v 0.84375 0.46875 0.7000000000000001
v 0.9375 0.46875 0.7000000000000002
v 0.9375 0.53125 0.7000000000000002
v 0.062499999999999944 0.53125 0.7
v 0.062499999999999944 0.46875 0.7
v 0.15624999999999994 0.46875 0.7
v 0.15624999999999994 0.53125 0.7
v 0.46874999999999994 0.9375 0.7
v 0.46874999999999994 0.84375 0.7
v 0.53125 0.84375 0.7
v 0.53125 0.9375 0.7
v 0.46874999999999994 0.15625 0.7
v 0.46874999999999994 0.0625 0.7
v 0.53125 0.0625 0.7
v 0.53125 0.15625 0.7
v 0.9275 0.276831 0.7000000000000001
v 0.8744669999999999 0.329864 0.7000000000000001
v 0.8302719999999999 0.285669 0.7000000000000001
v 0.883305 0.232636 0.7000000000000001
v 0.723169 0.9275 0.7000000000000001
v 0.670136 0.874467 0.7000000000000001
v 0.7143309999999999 0.830273 0.7000000000000001
v 0.7673639999999999 0.8833059999999999 0.7000000000000001
v 0.27683099999999994 0.07250000000000001 0.7
v 0.32986399999999994 0.125533 0.7
v 0.28566899999999995 0.16972700000000002 0.7
v 0.23263599999999995 0.11669400000000002 0.7
v 0.07249999999999995 0.723169 0.7
v 0.12553299999999995 0.6701360000000001 0.7
v 0.16972799999999993 0.714331 0.7
v 0.11669399999999996 0.7673639999999999 0.7
v 0.883305 0.7673639999999999 0.7000000000000001
v 0.8302719999999999 0.714331 0.7000000000000001
v 0.8744669999999999 0.6701360000000001 0.7000000000000001
v 0.9275 0.723169 0.7000000000000001
v 0.23263599999999995 0.8833059999999999 0.7
v 0.28566899999999995 0.830272 0.7
v 0.32986399999999994 0.874467 0.7
v 0.27683099999999994 0.9275 0.7
v 0.7673639999999999 0.11669400000000002 0.7000000000000001
v 0.7143309999999999 0.16972700000000002 0.7000000000000001
v 0.670136 0.125533 0.7000000000000001
v 0.723169 0.07250000000000001 0.7000000000000001
v 0.11669499999999994 0.232636 0.7
v 0.16972699999999996 0.285669 0.7
v 0.12553299999999995 0.329864 0.7
v 0.07249999999999995 0.276831 0.7
vt 0.5 0.5
vt 0.5 0.4375
vt 0.59375 0.4375
vt 0.59375 0.5
vt 0.4375 0.5
vt 0.4375 0.4375
vt 0.53125 0.4375
vt 0.53125 0.5
vt 0.5 0.5625
vt 0.5 0.46875
vt 0.5625 0.46875
vt 0.5625 0.5625
vt 0.5 0.5
vt 0.5 0.40625
vt 0.5625 0.40625
vt 0.5625 0.5
vt 0.06249940062212603 -0.012497512979601
vt 0.062499400622126 0.062499999999997224
vt 0 0.062499999999997224
vt 2.7755575615628914e-17 -0.012497512979601
vt 0.07499751297959817 0.06249999999999889
vt 0 0.06249999999999889
vt 0 5.993778728896615e-7
vt 0.07499751297959822 5.993778728896615e-7
vt 5.551115123125783e-17 5.993778711133046e-7
vt 0.07499751297959822 5.993778711133046e-7
vt 0.07499751297959822 0.06249999999999711
vt 0 0.06249999999999711
vt 1.0824674490095276e-15 0.06250000000000111
vt 1.1102230246251565e-15 -0.012497512979597225
vt 0.06249940062212711 -0.012497512979597225
vt 0.06249940062212708 0.06250000000000111
vt 0.07499751297959822 0.06249999999999711
vt 0 0.06249999999999711
vt 0 5.993778711133046e-7
vt 0.07499751297959822 5.993778711133046e-7
vt 2.7755575615628914e-17 0.06250000000000111
vt 0 -0.012497512979597225
vt 0.06249940062212603 -0.012497512979597225
vt 0.06249940062212597 0.06250000000000111
vt 0.06249940062212711 -0.012497512979601
vt 0.06249940062212714 0.062499999999997224
vt 1.1102230246251565e-15 0.062499999999997224
vt 1.1657341758564144e-15 -0.012497512979601
vt 0 5.993778728896615e-7
vt 0.07499751297959822 5.993778728896615e-7
vt 0.07499751297959822 0.06249999999999889
vt 0 0.06249999999999889
vt 0.5 0.5
vt 0.5 0.4375
vt 0.59375 0.4375
vt 0.59375 0.5
vt 0.4375 0.5
vt 0.4375 0.4375
vt 0.53125 0.4375
vt 0.53125 0.5
vt 0.5 0.5625
vt 0.5 0.46875
vt 0.5625 0.46875
vt 0.5625 0.5625
vt 0.5 0.5
vt 0.5 0.40625
vt 0.5625 0.40625
vt 0.5625 0.5
vt 0.06249940062212603 -0.012497512979601
vt 0.062499400622126 0.062499999999997224
vt 0 0.062499999999997224
vt 2.7755575615628914e-17 -0.012497512979601
vt 0.07499751297959817 0.06249999999999889
vt 0 0.06249999999999889
vt 0 5.993778728896615e-7
vt 0.07499751297959822 5.993778728896615e-7
vt 5.551115123125783e-17 5.993778711133046e-7
vt 0.07499751297959822 5.993778711133046e-7
vt 0.07499751297959822 0.06249999999999711
vt 0 0.06249999999999711
vt 1.0824674490095276e-15 0.06250000000000111
vt 1.1102230246251565e-15 -0.012497512979597225
vt 0.06249940062212711 -0.012497512979597225
vt 0.06249940062212708 0.06250000000000111
vt 0.07499751297959822 0.06249999999999711
vt 0 0.06249999999999711
vt 0 5.993778711133046e-7
vt 0.07499751297959822 5.993778711133046e-7
vt 2.7755575615628914e-17 0.06250000000000111
vt 0 -0.012497512979597225
vt 0.06249940062212603 -0.012497512979597225
vt 0.06249940062212597 0.06250000000000111
vt 0.06249940062212711 -0.012497512979601
vt 0.06249940062212714 0.062499999999997224
vt 1.1102230246251565e-15 0.062499999999997224
vt 1.1657341758564144e-15 -0.012497512979601
vt 0 5.993778728896615e-7
vt 0.07499751297959822 5.993778728896615e-7
vt 0.07499751297959822 0.06249999999999889
vt 0 0.06249999999999889
vn 2.220446049250313e-16 0 -1
vn 2.220446049250313e-16 0 -1
vn 2.220446049250313e-16 0 -1
vn 2.220446049250313e-16 0 -1
vn 2.220446049250313e-16 0 -1
vn 2.220446049250313e-16 0 -1
vn 2.220446049250313e-16 0 -1
vn 2.220446049250313e-16 0 -1
vn 2.220446049250313e-16 0 -1
vn 2.220446049250313e-16 0 -1
vn 2.220446049250313e-16 0 -1
vn 2.220446049250313e-16 0 -1
vn -2.220446049250313e-16 0 1
vn -2.220446049250313e-16 0 1
vn -2.220446049250313e-16 0 1
vn -2.220446049250313e-16 0 1
vn -2.220446049250313e-16 0 1
vn -2.220446049250313e-16 0 1
vn -2.220446049250313e-16 0 1
vn -2.220446049250313e-16 0 1
vn -2.220446049250313e-16 0 1
vn -2.220446049250313e-16 0 1
vn -2.220446049250313e-16 0 1
vn -2.220446049250313e-16 0 1
usemtl m_2ed30f8b-119b-527c-eb9a-fe370ebe7696
f 65/257/67 66/258/67 67/259/67 68/260/67
f 69/261/68 70/262/68 71/263/68 72/264/68
f 73/265/69 74/266/69 75/267/69 76/268/69
f 77/269/70 78/270/70 79/271/70 80/272/70
f 81/273/71 82/274/71 83/275/71 84/276/71
f 85/277/72 86/278/72 87/279/72 88/280/72
f 89/281/73 90/282/73 91/283/73 92/284/73
f 93/285/74 94/286/74 95/287/74 96/288/74
f 97/289/75 98/290/75 99/291/75 100/292/75
f 101/293/76 102/294/76 103/295/76 104/296/76
f 105/297/77 106/298/77 107/299/77 108/300/77
f 109/301/78 110/302/78 111/303/78 112/304/78
f 113/305/79 114/306/79 115/307/79 116/308/79
f 117/309/80 118/310/80 119/311/80 120/312/80
f 121/313/81 122/314/81 123/315/81 124/316/81
f 125/317/82 126/318/82 127/319/82 128/320/82
f 129/321/83 130/322/83 131/323/83 132/324/83
f 133/325/84 134/326/84 135/327/84 136/328/84
f 137/329/85 138/330/85 139/331/85 140/332/85
f 141/333/86 142/334/86 143/335/86 144/336/86
f 145/337/87 146/338/87 147/339/87 148/340/87
f 149/341/88 150/342/88 151/343/88 152/344/88
f 153/345/89 154/346/89 155/347/89 156/348/89
f 157/349/90 158/350/90 159/351/90 160/352/90