# Made in Blockbench 4.12.4
mtllib double_train_station_clock.mtl

o Plane
v 1 0.699112 0.9375
v 1 0.300888 0.9375
v 0.9375 0.300888 0.9375
v 0.9375 0.699112 0.9375
v 1 0.725 1
v 1 0.275 1
v 0.9375 0.9375 0.699112
v 1 0.9375 0.699112
v 1 1 0.725
v 0.9375 0.453125 0.546875
v 0.9375 0.546875 0.546875
v 0.975 0.546875 0.546875
v 0.975 0.453125 0.546875
v 0.725 0 0
v 0.5 0 0.5
v 0 0 0.275
v 0.275 0 0
v 1 0 0.725
v 1 0.0625 0.699112
v 0.9375 0.0625 0.300888
v 0.9375 0.0625 0.699112
v 1 0.0625 0.300888
v 0.9375 0.699112 1
v 0.9375 0.300888 1
v 0.699112 0.9375 1
v 0.699112 0.9375 0.9375
v 0.725 1 1
v 0.546875 0.546875 0.975
v 0.546875 0.453125 0.975
v 0.546875 0.453125 0.9375
v 0.546875 0.546875 0.9375
v 0.699112 0.0625 0.9375
v 0.699112 0.0625 1
v 0.725 0 1
v 0 0.699112 0.9375
v 0.0625 0.699112 0.9375
v 0.0625 0.300888 0.9375
v 0 0.300888 0.9375
v 0 0.725 1
v 0 0.275 1
v 0 0.9375 0.699112
v 0.0625 0.9375 0.699112
v 0 1 0.725
v 0.0625 0.546875 0.546875
v 0.0625 0.453125 0.546875
v 0.025 0.546875 0.546875
v 0.025 0.453125 0.546875
v 0.0625 0.0625 0.699112
v 0 0.0625 0.699112
v 0 0 0.725
v 0.275 1 1
v 0.5 1 0.5
v 1 1 0.275
v 0.725 1 0
v 0.275 1 0
v 0.0625 0.699112 1
v 0.0625 0.300888 1
v 0.300888 0.9375 0.9375
v 0.300888 0.9375 1
v 0.453125 0.546875 0.975
v 0.453125 0.546875 0.9375
v 0.453125 0.453125 0.9375
v 0.453125 0.453125 0.975
v 0.300888 0.0625 1
v 0.300888 0.0625 0.9375
v 0.275 0 1
v 1 0.699112 0.0625
v 0.9375 0.699112 0.0625
v 0.9375 0.300888 0.0625
v 1 0.300888 0.0625
v 1 0.725 0
v 1 0.275 0
v 1 0.9375 0.300888
v 0.9375 0.9375 0.300888
v 0.9375 0.546875 0.453125
v 0.9375 0.453125 0.453125
v 0.975 0.546875 0.453125
v 0.975 0.453125 0.453125
v 1 0 0.275
v 0.9375 0.699112 0
v 0.9375 0.300888 0
v 0.699112 0.9375 0.0625
v 0.699112 0.9375 0
v 0.546875 0.546875 0.025
v 0.546875 0.546875 0.0625
v 0.546875 0.453125 0.0625
v 0.546875 0.453125 0.025
v 0.699112 0.0625 0
v 0.699112 0.0625 0.0625
v 0 0.699112 0.0625
v 0 0.300888 0.0625
v 0.0625 0.300888 0.0625
v 0.0625 0.699112 0.0625
v 0 0.725 0
v 0 0.275 0
v 0.0625 0.9375 0.300888
v 0 0.9375 0.300888
v 0 1 0.275
v 0.0625 0.453125 0.453125
v 0.0625 0.546875 0.453125
v 0.025 0.546875 0.453125
v 0.025 0.453125 0.453125
v 0 0.0625 0.300888
v 0.0625 0.0625 0.300888
v 0.0625 0.699112 0
v 0.0625 0.300888 0
v 0.300888 0.9375 0
v 0.300888 0.9375 0.0625
v 0.453125 0.546875 0.025
v 0.453125 0.453125 0.025
v 0.453125 0.453125 0.0625
v 0.453125 0.546875 0.0625
v 0.300888 0.0625 0.0625
v 0.300888 0.0625 0
vt 0.9375 1
vt 0.9375 0.601775
vt 1 0.601775
vt 1 1
vt 0.9375 1
vt 0.9375 0.55
vt 1 0.5758875
vt 1 0.9741125
vt 1 0.6628625
vt 1 1
vt 0.9375 1
vt 0.9375 0.6628625
vt 0.5249999999999975 0.9999999999999998
vt 0.55088894702619 0.937500599377874
vt 0.888019782626406 0.937500599377874
vt 0.9139087296525987 1
vt 0.5392750000000017 0.9607249999999983
vt 0.5392750000000017 0.5624999999999982
vt 0.9299000000000017 0.7147374999999982
vt 0.9299000000000017 0.8084874999999982
vt 0.08749999999999858 0.09375
vt 0.0499999999999986 0.09375
vt 0.0499999999999986 0
vt 0.08749999999999858 0
vt 0.847954775761504 0.46072499999999494
vt 0.5392749999999986 0.32517428495825595
vt 0.8479547757615042 0.04148265119533279
vt 0.7250000000000001 2.220446049250313e-16
vt 0.4999999999999999 0.5000000000000001
vt 0 0.2749999999999999
vt 0.27500000000000013 0
vt 0.937500599377874 1
vt 0.9375005993778741 0.6110912703473989
vt 1 0.6369802173735913
vt 1 0.9741110529738074
vt 0.9375 1
vt 0.9375 0.601775
vt 1 0.601775
vt 1 1
vt 1 1
vt 0.9375 1
vt 0.9375 0.601775
vt 1 0.601775
vt 1 1
vt 0.9375 0.9741125
vt 0.9375 0.5758875
vt 1 0.55
vt 0.9375 0.6628625
vt 1 0.6628625
vt 1 1
vt 0.9375 1
vt 1 0.6110912703473989
vt 0.9999999999999998 1
vt 0.937500599377874 0.9741110529738075
vt 0.937500599377874 0.6369802173735915
vt 0.0499999999999986 0.09375
vt 0.0499999999999986 0
vt 0.08749999999999858 0
vt 0.08749999999999858 0.09375
vt 0.9375 1
vt 0.9375 0.66286875
vt 1 0.66286875
vt 1 1
vt 0.9139087296526001 0.9375005993778741
vt 0.8880197826264076 1
vt 0.5508889470261914 1
vt 0.5249999999999989 0.937500599377874
vt 0.28125 1
vt 0 1
vt 0 0.71875
vt 0.9924000000000017 0.39822500000000005
vt 0.6017750000000017 0.24598750000000003
vt 0.6017750000000017 0.15223750000000003
vt 0.9924000000000017 0
vt 0.6017750000000047 0.5414826511953379
vt 0.9104547757615102 0.6770333662370764
vt 0.6017750000000048 0.9607249999999999
vt 0.8229666337629256 0.8982250000000009
vt 0.5392750000000021 0.5895452242384954
vt 0.9585173488046641 0.5895452242384953
vt 1 0
vt 1 0.28125
vt 0.71875 0
vt 1 1
vt 0.9375 1
vt 0.9375 0.601775
vt 1 0.601775
vt 1 1
vt 0.9375 0.9741125
vt 0.9375 0.5758875
vt 1 0.55
vt 0.9375 0.6628625
vt 1 0.6628625
vt 1 1
vt 0.9375 1
vt 1 0.6110912703473989
vt 0.9999999999999998 1
vt 0.937500599377874 0.9741110529738075
vt 0.937500599377874 0.6369802173735915
vt 0.9299000000000017 0.9607249999999983
vt 0.5392750000000017 0.8084874999999982
vt 0.5392750000000017 0.7147374999999982
vt 0.9299000000000017 0.5624999999999982
vt 0.0499999999999986 0.09375
vt 0.0499999999999986 0
vt 0.0874999999999986 0
vt 0.0874999999999986 0.09375
vt 0.8229666337629256 0.33572500000000094
vt 0.5392750000000021 0.027045224238495424
vt 0.9585173488046641 0.027045224238495313
vt 0.9375 1
vt 0.9375 0.66286875
vt 1 0.66286875
vt 1 1
vt 0.9139087296526001 0.9375005993778741
vt 0.8880197826264076 1
vt 0.5508889470261914 1
vt 0.5249999999999989 0.937500599377874
vt 0.275 1.1102230246251565e-16
vt 0.725 0
vt 0.4999999999999999 0.5
vt 0 0.275
vt 0.6017750000000047 0.1039826511953379
vt 0.9104547757615102 0.23953336623707644
vt 0.6017750000000048 0.5232249999999999
vt 0.5 0.49843757130724475
vt 1 0.723437571307245
vt 0.7249999999999998 0.9984375713072449
vt 0.27499999999999986 0.9984375713072446
vt 0.9375 1
vt 0.9375 0.601775
vt 1 0.601775
vt 1 1
vt 0.9375 1
vt 0.9375 0.55
vt 1 0.5758875
vt 1 0.9741125
vt 1 0.66286875
vt 1 1
vt 0.9375 1
vt 0.9375 0.66286875
vt 0.5249999999999989 0.9999999999999999
vt 0.5508889470261914 0.937500599377874
vt 0.8880197826264074 0.937500599377874
vt 0.9139087296526001 1
vt 0.08749999999999858 0.09375
vt 0.0499999999999986 0.09375
vt 0.0499999999999986 0
vt 0.08749999999999858 0
vt 1 1
vt 0.9375 1
vt 0.9375 0.6628625
vt 1 0.6628625
vt 0.9375005993778741 1
vt 0.9375005993778741 0.6110912703473989
vt 1 0.6369802173735913
vt 1 0.9741110529738075
vt 1 0.71875
vt 1 1
vt 0.71875 1
vt 0.6017750000000017 0.39822500000000005
vt 0.6017750000000017 0
vt 0.9924000000000017 0.15223750000000003
vt 0.9924000000000017 0.24598750000000003
vt 0.6748257150417399 0.46454522423849176
vt 0.9585173488046634 0.7732249999999972
vt 0.5392750000000013 0.7732249999999973
vt 0.8479547757615062 0.8982250000000012
vt 0.5392750000000008 0.7626742849582622
vt 0.8479547757615065 0.478982651195339
vt 0 0
vt 0.28125 0
vt 0 0.28125
vt 1 1
vt 0.9375 1
vt 0.9375 0.601775
vt 1 0.601775
vt 1 1
vt 0.9375 0.9741125
vt 0.9375 0.5758875
vt 1 0.55
vt 0.9375 0.66286875
vt 1 0.66286875
vt 1 1
vt 0.9375 1
vt 1 0.11109127034739885
vt 0.9999999999999999 0.5
vt 0.937500599377874 0.4741110529738075
vt 0.937500599377874 0.13698021737359134
vt 0.9299000000000017 0.9607249999999983
vt 0.5392750000000017 0.8084874999999982
vt 0.5392750000000017 0.7147374999999982
vt 0.9299000000000017 0.5624999999999982
vt 0.0499999999999986 0.09375
vt 0.0499999999999986 0
vt 0.08749999999999858 0
vt 0.08749999999999858 0.09375
vt 0.8229666337629236 0.39822499999999517
vt 0.5392750000000001 0.08954522423848976
vt 0.9585173488046621 0.08954522423848965
vt 0.9375 1
vt 0.9375 0.6628625
vt 1 0.6628625
vt 1 1
vt 0.9139087296525987 0.9375005993778713
vt 0.8880197826264062 0.9999999999999972
vt 0.55088894702619 0.9999999999999972
vt 0.5249999999999975 0.9375005993778713
vt 0.6017750000000027 0.041482651195339226
vt 0.9104547757615082 0.17703336623707788
vt 0.6017750000000028 0.4607250000000014
vt 0.9375 1
vt 0.9375 0.601775
vt 1 0.601775
vt 1 1
vt 0.9375 1
vt 0.9375 0.55
vt 1 0.5758875
vt 1 0.9741125
vt 1 0.6628625
vt 1 1
vt 0.9375 1
vt 0.9375 0.6628625
vt 0.5249999999999975 0.9999999999999998
vt 0.55088894702619 0.937500599377874
vt 0.888019782626406 0.937500599377874
vt 0.9139087296525987 1
vt 0.0874999999999986 0.09375
vt 0.0499999999999986 0.09375
vt 0.0499999999999986 0
vt 0.0874999999999986 0
vt 1 1
vt 0.9375 1
vt 0.9375 0.66286875
vt 1 0.66286875
vt 0.937500599377874 1
vt 0.9375005993778741 0.6110912703473989
vt 1 0.6369802173735913
vt 1 0.9741110529738074
vt 0.28125 0
vt 0 0
vt 0 0.28125
vt 0.6017750000000017 0.39822500000000005
vt 0.6017750000000017 0
vt 0.9924000000000017 0.15223750000000003
vt 0.9924000000000017 0.24598750000000003
vt 0.6748257150417379 0.5270452242384931
vt 0.9585173488046614 0.8357249999999986
vt 0.5392749999999993 0.8357249999999987
vt 0.847954775761504 0.9607249999999949
vt 0.5392749999999986 0.825174284958256
vt 0.8479547757615042 0.5414826511953328
vt 1 1
vt 0.71875 1
vt 1 0.71875
vt 0.9375 1
vt 0.9375 0.601775
vt 1 0.601775
vt 1 1
vt 0.9375 1
vt 0.9375 0.55
vt 1 0.5758875
vt 1 0.9741125
vt 1 0.66286875
vt 1 1
vt 0.9375 1
vt 0.9375 0.66286875
vt 0.5249999999999989 0.9999999999999999
vt 0.5508889470261914 0.937500599377874
vt 0.8880197826264074 0.937500599377874
vt 0.9139087296526001 1
vt 0.5392750000000017 0.9607249999999983
vt 0.5392750000000017 0.5624999999999982
vt 0.9299000000000017 0.7147374999999982
vt 0.9299000000000017 0.8084874999999982
vt 0.0874999999999986 0.09375
vt 0.0499999999999986 0.09375
vt 0.0499999999999986 0
vt 0.0874999999999986 0
vt 0.8479547757615062 0.46072500000000116
vt 0.5392750000000008 0.32517428495826217
vt 0.8479547757615065 0.041482651195339004
vt 1 1
vt 0.9375 1
vt 0.9375 0.6628625
vt 1 0.6628625
vt 0.9375005993778741 1
vt 0.9375005993778741 0.6110912703473989
vt 1 0.6369802173735913
vt 1 0.9741110529738075
vt 0.7249999999999999 0
vt 0.9999999999999999 0.27500000000000013
vt 1 0.7250000000000001
vt 0.49999999999999994 0.5
vt 0.6748257150417399 0.02704522423849176
vt 0.9585173488046634 0.33572499999999716
vt 0.5392750000000013 0.3357249999999973
vt 0.27500000000000013 1
vt 0 0.7249999999999999
vt 5.551115123125783e-17 0.2749999999999999
vt 0.5 0.5
vt 1 1
vt 0.9375 1
vt 0.9375 0.601775
vt 1 0.601775
vt 1 1
vt 0.9375 0.9741125
vt 0.9375 0.5758875
vt 1 0.55
vt 0.9375 0.66286875
vt 1 0.66286875
vt 1 1
vt 0.9375 1
vt 1 0.11109127034739885
vt 0.9999999999999999 0.5
vt 0.937500599377874 0.4741110529738075
vt 0.937500599377874 0.13698021737359134
vt 0.0499999999999986 0.09375
vt 0.0499999999999986 0
vt 0.0874999999999986 0
vt 0.0874999999999986 0.09375
vt 0.9375 1
vt 0.9375 0.6628625
vt 1 0.6628625
vt 1 1
vt 0.9139087296525987 0.9375005993778713
vt 0.8880197826264062 0.9999999999999972
vt 0.55088894702619 0.9999999999999972
vt 0.5249999999999975 0.9375005993778713
vt 0.71875 0
vt 1 0.28125
vt 1 0
vt 0.9924000000000017 0.39822500000000005
vt 0.6017750000000017 0.24598750000000003
vt 0.6017750000000017 0.15223750000000003
vt 0.9924000000000017 0
vt 0.6017750000000027 0.5414826511953392
vt 0.9104547757615082 0.6770333662370779
vt 0.6017750000000028 0.9607250000000014
vt 0.8229666337629236 0.8982249999999952
vt 0.5392750000000001 0.5895452242384898
vt 0.9585173488046621 0.5895452242384897
vt 0 1
vt 0 0.71875
vt 0.28125 1
vt 0.9116125 0
vt 0.9375 0.0625
vt 0.48750000000000004 0.0625
vt 0.5133875 0
vt 0.8866125000000002 1
vt 0.4883875000000002 1
vt 0.46250000000000024 0.9375
vt 0.9125000000000003 0.9375
vt 0.9232249999999971 0.9375
vt 0.9232249999999971 1
vt 0.524999999999997 1
vt 0.524999999999997 0.9375
vt 0.9232249999999971 1
vt 0.524999999999997 1
vt 0.524999999999997 0.9375
vt 0.9232249999999971 0.9375
vt 0.1437499999999986 0.05624999999999991
vt 0.1437499999999986 0.09375
vt 0.0499999999999986 0.09375
vt 0.0499999999999986 0.05624999999999991
vt 0.1437499999999986 0
vt 0.1437499999999986 0.09375
vt 0.0499999999999986 0.09375
vt 0.0499999999999986 0
vt 0.1437499999999986 0.09374999999999856
vt 0.0499999999999986 0.09374999999999856
vt 0.0499999999999986 0.05624999999999858
vt 0.1437499999999986 0.05624999999999858
vt 1 0.007599999999998275
vt 0.8477625 0.3982249999999983
vt 0.7540125 0.3982249999999983
vt 0.601775 0.007599999999998275
vt 0.8477625 0.007599999999998275
vt 1 0.3982249999999983
vt 0.601775 0.3982249999999983
vt 0.7540125 0.007599999999998275
vt 0.9375 0.601775
vt 1 0.601775
vt 1 1
vt 0.9375 1
vt 0.8866125000000002 1
vt 0.4883875000000002 1
vt 0.46250000000000024 0.9375
vt 0.9125000000000003 0.9375
vt 0.9375 1
vt 0.9375 0.601775
vt 1 0.601775
vt 1 1
vt 0.9116125 0
vt 0.9375 0.0625
vt 0.48750000000000004 0.0625
vt 0.5133875 0
vt 0.8477625 0.007599999999998275
vt 1 0.3982249999999983
vt 0.601775 0.3982249999999983
vt 0.7540125 0.007599999999998275
vt 0.0499999999999986 0
vt 0.0874999999999986 0
vt 0.0874999999999986 0.09375
vt 0.0499999999999986 0.09375
vt 1 0.007599999999998275
vt 0.8477625 0.3982249999999983
vt 0.7540125 0.3982249999999983
vt 0.601775 0.007599999999998275
vt 0.1437499999999986 0.09375
vt 0.0499999999999986 0.09375
vt 0.0499999999999986 0
vt 0.1437499999999986 0
vt 0.0499999999999986 0
vt 0.0874999999999986 0
vt 0.0874999999999986 0.09375
vt 0.0499999999999986 0.09375
vt 0.9232249999999971 0.9375
vt 0.9232249999999971 1
vt 0.524999999999997 1
vt 0.524999999999997 0.9375
vt 0.4883875000000002 0.9375
vt 0.8866125000000002 0.9375
vt 0.9125000000000003 1
vt 0.46250000000000024 1
vt 0.8477625 0.007599999999998275
vt 1 0.3982249999999983
vt 0.601775 0.3982249999999983
vt 0.7540125 0.007599999999998275
vt 0.1437499999999986 0.05624999999999991
vt 0.1437499999999986 0.09375
vt 0.0499999999999986 0.09375
vt 0.0499999999999986 0.05624999999999991
vt 1 0.007599999999998275
vt 0.8477625 0.3982249999999983
vt 0.7540125 0.3982249999999983
vt 0.601775 0.007599999999998275
vt 0.1437499999999986 0.05624999999999858
vt 0.1437499999999986 0.09374999999999856
vt 0.0499999999999986 0.09374999999999856
vt 0.0499999999999986 0.05624999999999858
vt 0.1437499999999986 0
vt 0.1437499999999986 0.09375
vt 0.0499999999999986 0.09375
vt 0.0499999999999986 0
vt 0.4883875000000002 0.9375
vt 0.8866125000000002 0.9375
vt 0.9125000000000003 1
vt 0.46250000000000024 1
vt 1 1
vt 0.9375 1
vt 0.9375 0.601775
vt 1 0.601775
vt 0.8477625 0.007599999999998275
vt 1 0.3982249999999983
vt 0.601775 0.3982249999999983
vt 0.7540125 0.007599999999998275
vt 0.4883875000000002 1
vt 0.46250000000000024 0.9375
vt 0.9125000000000003 0.9375
vt 0.8866125000000002 1
vt 0.5000000000000001 0.49843757130724387
vt 1 0.7234375713072441
vt 0.7249999999999998 0.998437571307244
vt 0.2749999999999998 0.9984375713072438
vt 0.49999999999999994 0.5000000000000001
vt 0.7249999999999999 0
vt 1 0.27500000000000013
vt 1 0.7250000000000001
vt 0.08749999999999858 0.09375
vt 0.0499999999999986 0.09375
vt 0.0499999999999986 0
vt 0.08749999999999858 0
vt 0.0499999999999986 0.09375
vt 0.0499999999999986 0
vt 0.1437499999999986 0
vt 0.1437499999999986 0.09375
vt 0.0499999999999986 0
vt 0.08749999999999858 0
vt 0.08749999999999858 0.09375
vt 0.0499999999999986 0.09375
vt 0.49999999999999994 0.5038715655922997
vt 0.2750000000000001 1
vt 0 0.7288715655922997
vt 0 0.27887156559229975
vt 0.5133875 0.0625
vt 0.48750000000000004 0
vt 0.9375 0
vt 0.9116125 0.0625
vt 0.5107249999999987 0.0625
vt 0.1124999999999986 0.0625
vt 0.1124999999999986 0
vt 0.5107249999999987 0
vt 0.9375 0.6628687499999971
vt 1 0.6628687499999971
vt 1 0.9999999999999971
vt 0.9375 0.9999999999999971
vt 0.5392749999999993 0.8357249999999987
vt 0.6748257150417379 0.5270452242384931
vt 0.9585173488046614 0.8357249999999986
vt 0.8477625 0.3982249999999983
vt 0.7540125 0.3982249999999983
vt 0.601775 0.007599999999998275
vt 1 0.007599999999998275
vn 0 0 -1
vn 1 0 0
vn 0 -0.7071067811865476 -0.7071067811865476
vn 1 0 0
vn 1 0 0
vn 0 0 1
vn 1 0 0
vn 0 -1 0
vn 1 0 0
vn 0 1 0
vn -1 0 0
vn 0 0 1
vn -0.7071067811865476 -0.7071067811865476 0
vn 0 0 1
vn 1 0 0
vn -0.7071067811865475 0.7071067811865476 0
vn 0 0 1
vn 0.5773502691896257 -0.5773502691896257 0.5773502691896257
vn 0 0 1
vn 0 0 1
vn 0 0 1
vn 0.5773502691896257 0.5773502691896257 0.5773502691896257
vn 0 0 -1
vn -1 0 0
vn 0 -0.7071067811865476 -0.7071067811865476
vn -1 0 0
vn -1 0 0
vn 0 0 1
vn -1 0 0
vn 0 0.7071067811865476 -0.7071067811865475
vn -1 0 0
vn 0 1 0
vn -1 0 0
vn 0 1 0
vn 1 0 0
vn 0 0 1
vn 0.7071067811865476 -0.7071067811865475 0
vn 0 0 1
vn -1 0 0
vn 0.7071067811865476 0.7071067811865476 0
vn 0 0 1
vn -0.5773502691896257 -0.5773502691896257 0.5773502691896257
vn 0 0 1
vn 0 0 1
vn 0 0 1
vn -0.5773502691896257 0.5773502691896257 0.5773502691896257
vn 0 0 1
vn 1 0 0
vn 0 -0.7071067811865475 0.7071067811865476
vn 1 0 0
vn 1 0 0
vn 0 0 -1
vn 1 0 0
vn 0 0.7071067811865476 0.7071067811865476
vn 1 0 0
vn 1 0 0
vn -1 0 0
vn 0 0 -1
vn -0.7071067811865476 -0.7071067811865476 0
vn 0 0 -1
vn 1 0 0
vn -0.7071067811865475 0.7071067811865476 0
vn 0 0 -1
vn 0.5773502691896257 -0.5773502691896257 -0.5773502691896257
vn 0 0 -1
vn 0 0 -1
vn 0 0 -1
vn 0.5773502691896257 0.5773502691896257 -0.5773502691896257
vn 0 0 1
vn -1 0 0
vn 0 -0.7071067811865475 0.7071067811865476
vn -1 0 0
vn -1 0 0
vn 0 0 -1
vn -1 0 0
vn 0 0.7071067811865476 0.7071067811865476
vn -1 0 0
vn 0 1 0
vn -1 0 0
vn 0 1 0
vn 1 0 0
vn 0 0 -1
vn 0.7071067811865476 -0.7071067811865475 0
vn 0 0 -1
vn -1 0 0
vn 0.7071067811865476 0.7071067811865476 0
vn 0 0 -1
vn -0.5773502691896257 -0.5773502691896257 -0.5773502691896257
vn 0 0 -1
vn 0 0 -1
vn 0 0 -1
vn -0.5773502691896257 0.5773502691896257 -0.5773502691896257
vn 0 0 1
vn 0 0 1
vn 0 1 0
vn 0 -1 0
vn 0 1 0
vn 0 0 1
vn 0 -1 0
vn 0 0 1
vn 0 0 1
vn 0 1 0
vn -1 0 0
vn 0 -1 0
vn -1 0 0
vn -1 0 0
vn 0 -1 0
vn -1 0 0
vn -1 0 0
vn 0 1 0
vn 0 -1 0
vn 0 0 -1
vn 0 0 -1
vn 0 -1 0
vn 0 0 -1
vn 0 1 0
vn 0 0 -1
vn 1 0 0
vn 0 -1 0
vn 1 0 0
vn 1 0 0
vn 0 -1 0
vn 0 -1 0
vn 0 -1 0
vn 1 0 0
vn 0 1 0
vn 0 -1 0
vn 0 0 -1
vn 0 1 0
vn 0 0.7071067811865476 -0.7071067811865475
vn 1 0 0
vn 1 0 0
usemtl m_de7eb42e-f896-2264-1968-93999f2a8c9a
f 1/1/1 2/2/1 3/3/1 4/4/1
f 5/5/2 6/6/2 2/7/2 1/8/2
f 4/9/3 7/10/3 8/11/3 1/12/3
f 5/13/4 1/14/4 8/15/4 9/16/4
usemtl m_3e0556a4-5032-668c-bc3c-f43d85c5b639
f 4/17/5 3/18/5 10/19/5 11/20/5
usemtl m_de7eb42e-f896-2264-1968-93999f2a8c9a
f 12/21/6 11/22/6 10/23/6 13/24/6
usemtl m_3e0556a4-5032-668c-bc3c-f43d85c5b639
f 7/25/7 4/26/7 11/27/7
usemtl m_de7eb42e-f896-2264-1968-93999f2a8c9a
f 14/28/8 15/29/8 16/30/8 17/31/8
f 6/32/9 18/33/9 19/34/9 2/35/9
f 20/36/10 21/37/10 19/38/10 22/39/10
f 23/40/11 4/41/11 3/42/11 24/43/11
f 5/44/12 23/45/12 24/46/12 6/47/12
f 4/48/13 23/49/13 25/50/13 26/51/13
f 5/52/14 27/53/14 25/54/14 23/55/14
f 28/56/15 29/57/15 30/58/15 31/59/15
f 3/60/16 32/61/16 33/62/16 24/63/16
f 6/64/17 24/65/17 33/66/17 34/67/17
f 18/68/18 6/69/18 34/70/18
usemtl m_3e0556a4-5032-668c-bc3c-f43d85c5b639
f 4/71/19 31/72/19 30/73/19 3/74/19
f 32/75/20 3/76/20 30/77/20
f 26/78/21 31/79/21 4/80/21
usemtl m_de7eb42e-f896-2264-1968-93999f2a8c9a
f 5/81/22 9/82/22 27/83/22
f 35/84/23 36/85/23 37/86/23 38/87/23
f 39/88/24 35/89/24 38/90/24 40/91/24
f 36/92/25 35/93/25 41/94/25 42/95/25
f 39/96/26 43/97/26 41/98/26 35/99/26
usemtl m_3e0556a4-5032-668c-bc3c-f43d85c5b639
f 36/100/27 44/101/27 45/102/27 37/103/27
usemtl m_de7eb42e-f896-2264-1968-93999f2a8c9a
f 46/104/28 47/105/28 45/106/28 44/107/28
usemtl m_3e0556a4-5032-668c-bc3c-f43d85c5b639
f 42/108/29 44/109/29 36/110/29
usemtl m_de7eb42e-f896-2264-1968-93999f2a8c9a
f 37/111/30 48/112/30 49/113/30 38/114/30
f 40/115/31 38/116/31 49/117/31 50/118/31
f 51/119/32 27/120/32 52/121/32 43/122/32
usemtl m_3e0556a4-5032-668c-bc3c-f43d85c5b639
f 48/123/33 37/124/33 45/125/33
usemtl m_de7eb42e-f896-2264-1968-93999f2a8c9a
f 52/126/34 53/127/34 54/128/34 55/129/34
f 56/130/35 57/131/35 37/132/35 36/133/35
f 39/134/36 40/135/36 57/136/36 56/137/36
f 36/138/37 58/139/37 59/140/37 56/141/37
f 39/142/38 56/143/38 59/144/38 51/145/38
f 60/146/39 61/147/39 62/148/39 63/149/39
f 37/150/40 57/151/40 64/152/40 65/153/40
f 40/154/41 66/155/41 64/156/41 57/157/41
f 66/158/42 40/159/42 50/160/42
usemtl m_3e0556a4-5032-668c-bc3c-f43d85c5b639
f 36/161/43 37/162/43 62/163/43 61/164/43
f 65/165/44 62/166/44 37/167/44
f 58/168/45 36/169/45 61/170/45
usemtl m_de7eb42e-f896-2264-1968-93999f2a8c9a
f 39/171/46 51/172/46 43/173/46
f 67/174/47 68/175/47 69/176/47 70/177/47
f 71/178/48 67/179/48 70/180/48 72/181/48
f 68/182/49 67/183/49 73/184/49 74/185/49
f 71/186/50 53/187/50 73/188/50 67/189/50
usemtl m_3e0556a4-5032-668c-bc3c-f43d85c5b639
f 68/190/51 75/191/51 76/192/51 69/193/51
usemtl m_de7eb42e-f896-2264-1968-93999f2a8c9a
f 77/194/52 78/195/52 76/196/52 75/197/52
usemtl m_3e0556a4-5032-668c-bc3c-f43d85c5b639
f 74/198/53 75/199/53 68/200/53
usemtl m_de7eb42e-f896-2264-1968-93999f2a8c9a
f 69/201/54 20/202/54 22/203/54 70/204/54
f 72/205/55 70/206/55 22/207/55 79/208/55
usemtl m_3e0556a4-5032-668c-bc3c-f43d85c5b639
f 20/209/56 69/210/56 76/211/56
usemtl m_de7eb42e-f896-2264-1968-93999f2a8c9a
f 80/212/57 81/213/57 69/214/57 68/215/57
f 71/216/58 72/217/58 81/218/58 80/219/58
f 68/220/59 82/221/59 83/222/59 80/223/59
f 71/224/60 80/225/60 83/226/60 54/227/60
f 84/228/61 85/229/61 86/230/61 87/231/61
f 69/232/62 81/233/62 88/234/62 89/235/62
f 72/236/63 14/237/63 88/238/63 81/239/63
f 14/240/64 72/241/64 79/242/64
usemtl m_3e0556a4-5032-668c-bc3c-f43d85c5b639
f 68/243/65 69/244/65 86/245/65 85/246/65
f 89/247/66 86/248/66 69/249/66
f 82/250/67 68/251/67 85/252/67
usemtl m_de7eb42e-f896-2264-1968-93999f2a8c9a
f 71/253/68 54/254/68 53/255/68
f 90/256/69 91/257/69 92/258/69 93/259/69
f 94/260/70 95/261/70 91/262/70 90/263/70
f 93/264/71 96/265/71 97/266/71 90/267/71
f 94/268/72 90/269/72 97/270/72 98/271/72
usemtl m_3e0556a4-5032-668c-bc3c-f43d85c5b639
f 93/272/73 92/273/73 99/274/73 100/275/73
usemtl m_de7eb42e-f896-2264-1968-93999f2a8c9a
f 101/276/74 100/277/74 99/278/74 102/279/74
usemtl m_3e0556a4-5032-668c-bc3c-f43d85c5b639
f 96/280/75 93/281/75 100/282/75
usemtl m_de7eb42e-f896-2264-1968-93999f2a8c9a
f 92/283/76 91/284/76 103/285/76 104/286/76
f 95/287/77 16/288/77 103/289/77 91/290/77
f 27/291/78 9/292/78 53/293/78 52/294/78
usemtl m_3e0556a4-5032-668c-bc3c-f43d85c5b639
f 104/295/79 99/296/79 92/297/79
usemtl m_de7eb42e-f896-2264-1968-93999f2a8c9a
f 55/298/80 98/299/80 43/300/80 52/301/80
f 105/302/81 93/303/81 92/304/81 106/305/81
f 94/306/82 105/307/82 106/308/82 95/309/82
f 93/310/83 105/311/83 107/312/83 108/313/83
f 94/314/84 55/315/84 107/316/84 105/317/84
f 109/318/85 110/319/85 111/320/85 112/321/85
f 92/322/86 113/323/86 114/324/86 106/325/86
f 95/326/87 106/327/87 114/328/87 17/329/87
f 17/330/88 16/331/88 95/332/88
usemtl m_3e0556a4-5032-668c-bc3c-f43d85c5b639
f 93/333/89 112/334/89 111/335/89 92/336/89
f 113/337/90 92/338/90 111/339/90
f 108/340/91 112/341/91 93/342/91
usemtl m_de7eb42e-f896-2264-1968-93999f2a8c9a
f 94/343/92 98/344/92 55/345/92
f 25/346/93 27/347/93 51/348/93 59/349/93
f 33/350/94 64/351/94 66/352/94 34/353/94
f 33/354/95 32/355/95 65/356/95 64/357/95
f 25/358/96 59/359/96 58/360/96 26/361/96
f 28/362/97 31/363/97 61/364/97 60/365/97
f 29/366/98 28/367/98 60/368/98 63/369/98
f 29/370/99 63/371/99 62/372/99 30/373/99
usemtl m_3e0556a4-5032-668c-bc3c-f43d85c5b639
f 32/374/100 30/375/100 62/376/100 65/377/100
f 31/378/101 26/379/101 58/380/101 61/381/101
usemtl m_de7eb42e-f896-2264-1968-93999f2a8c9a
f 49/382/102 48/383/102 104/384/102 103/385/102
f 49/386/103 103/387/103 16/388/103 50/389/103
f 41/390/104 97/391/104 96/392/104 42/393/104
f 41/394/105 43/395/105 98/396/105 97/397/105
usemtl m_3e0556a4-5032-668c-bc3c-f43d85c5b639
f 44/398/106 42/399/106 96/400/106 100/401/106
usemtl m_de7eb42e-f896-2264-1968-93999f2a8c9a
f 102/402/107 99/403/107 45/404/107 47/405/107
usemtl m_3e0556a4-5032-668c-bc3c-f43d85c5b639
f 48/406/108 45/407/108 99/408/108 104/409/108
usemtl m_de7eb42e-f896-2264-1968-93999f2a8c9a
f 46/410/109 101/411/109 102/412/109 47/413/109
f 46/414/110 44/415/110 100/416/110 101/417/110
f 83/418/111 82/419/111 108/420/111 107/421/111
f 83/422/112 107/423/112 55/424/112 54/425/112
usemtl m_3e0556a4-5032-668c-bc3c-f43d85c5b639
f 112/426/113 108/427/113 82/428/113 85/429/113
usemtl m_de7eb42e-f896-2264-1968-93999f2a8c9a
f 87/430/114 86/431/114 111/432/114 110/433/114
usemtl m_3e0556a4-5032-668c-bc3c-f43d85c5b639
f 113/434/115 111/435/115 86/436/115 89/437/115
usemtl m_de7eb42e-f896-2264-1968-93999f2a8c9a
f 85/438/116 84/439/116 109/440/116 112/441/116
f 110/442/117 109/443/117 84/444/117 87/445/117
f 8/446/118 73/447/118 53/448/118 9/449/118
f 8/450/119 7/451/119 74/452/119 73/453/119
usemtl m_3e0556a4-5032-668c-bc3c-f43d85c5b639
f 75/454/120 74/455/120 7/456/120 11/457/120
usemtl m_de7eb42e-f896-2264-1968-93999f2a8c9a
f 19/458/121 18/459/121 79/460/121 22/461/121
f 15/462/122 18/463/122 34/464/122 66/465/122
f 15/466/123 14/467/123 79/468/123 18/469/123
f 13/470/124 10/471/124 76/472/124 78/473/124
f 12/474/125 13/475/125 78/476/125 77/477/125
f 11/478/126 12/479/126 77/480/126 75/481/126
f 15/482/127 66/483/127 50/484/127 16/485/127
f 88/486/128 14/487/128 17/488/128 114/489/128
f 88/490/129 114/491/129 113/492/129 89/493/129
f 19/494/130 21/495/130 3/496/130 2/497/130
usemtl m_3e0556a4-5032-668c-bc3c-f43d85c5b639
f 3/498/131 21/499/131 10/500/131
f 76/501/132 10/502/132 21/503/132 20/504/132
o Plane.002
v 0.95 0.53125 0.15625
v 0.95 0.46875 0.15625
v 0.95 0.46875 0.0625
v 0.95 0.53125 0.0625
v 0.95 0.53125 0.9375
v 0.95 0.46875 0.9375
v 0.95 0.46875 0.84375
v 0.95 0.53125 0.84375
v 0.95 0.9375 0.53125
v 0.95 0.84375 0.53125
v 0.95 0.84375 0.46875
v 0.95 0.9375 0.46875
v 0.95 0.15625 0.53125
v 0.95 0.0625 0.53125
v 0.95 0.0625 0.46875
v 0.95 0.15625 0.46875
v 0.95 0.276831 0.0725
v 0.95 0.329864 0.125533
v 0.95 0.285669 0.169728
v 0.95 0.232636 0.116695
v 0.95 0.9275 0.276831
v 0.95 0.874467 0.329864
v 0.95 0.830273 0.285669
v 0.95 0.883306 0.232636
v 0.95 0.0725 0.723169
v 0.95 0.125533 0.670136
v 0.95 0.169727 0.714331
v 0.95 0.116694 0.767364
v 0.95 0.723169 0.9275
v 0.95 0.670136 0.874467
v 0.95 0.714331 0.830272
v 0.95 0.767364 0.883306
v 0.95 0.767364 0.116695
v 0.95 0.714331 0.169728
v 0.95 0.670136 0.125533
v 0.95 0.723169 0.0725
v 0.95 0.883306 0.767364
v 0.95 0.830272 0.714331
v 0.95 0.874467 0.670136
v 0.95 0.9275 0.723169
v 0.95 0.116694 0.232636
v 0.95 0.169727 0.285669
v 0.95 0.125533 0.329864
v 0.95 0.0725 0.276831
v 0.95 0.232636 0.883305
v 0.95 0.285669 0.830273
v 0.95 0.329864 0.874467
v 0.95 0.276831 0.9275
v 0.05 0.53125 0.84375
v 0.05 0.46875 0.84375
v 0.05 0.46875 0.9375
v 0.05 0.53125 0.9375
v 0.05 0.53125 0.0625
v 0.05 0.46875 0.0625
v 0.05 0.46875 0.15625
v 0.05 0.53125 0.15625
v 0.05 0.9375 0.46875
v 0.05 0.84375 0.46875
v 0.05 0.84375 0.53125
v 0.05 0.9375 0.53125
v 0.05 0.15625 0.46875
v 0.05 0.0625 0.46875
v 0.05 0.0625 0.53125
v 0.05 0.15625 0.53125
v 0.05 0.276831 0.9275
v 0.05 0.329864 0.874467
v 0.05 0.285669 0.830272
v 0.05 0.232636 0.883305
v 0.05 0.9275 0.723169
v 0.05 0.874467 0.670136
v 0.05 0.830273 0.714331
v 0.05 0.883306 0.767364
v 0.05 0.0725 0.276831
v 0.05 0.125533 0.329864
v 0.05 0.169727 0.285669
v 0.05 0.116694 0.232636
v 0.05 0.723169 0.0725
v 0.05 0.670136 0.125533
v 0.05 0.714331 0.169728
v 0.05 0.767364 0.116694
v 0.05 0.767364 0.883305
v 0.05 0.714331 0.830272
v 0.05 0.670136 0.874467
v 0.05 0.723169 0.9275
v 0.05 0.883306 0.232636
v 0.05 0.830272 0.285669
v 0.05 0.874467 0.329864
v 0.05 0.9275 0.276831
v 0.05 0.116694 0.767364
v 0.05 0.169727 0.714331
v 0.05 0.125533 0.670136
v 0.05 0.0725 0.723169
v 0.05 0.232636 0.116695
v 0.05 0.285669 0.169727
v 0.05 0.329864 0.125533
v 0.05 0.276831 0.0725
v 0.84375 0.53125 0.95
v 0.84375 0.46875 0.95
v 0.9375 0.46875 0.95
v 0.9375 0.53125 0.95
v 0.0625 0.53125 0.95
v 0.0625 0.46875 0.95
v 0.15625 0.46875 0.95
v 0.15625 0.53125 0.95
v 0.46875 0.9375 0.95
v 0.46875 0.84375 0.95
v 0.53125 0.84375 0.95
v 0.53125 0.9375 0.95
v 0.46875 0.15625 0.95
v 0.46875 0.0625 0.95
v 0.53125 0.0625 0.95
v 0.53125 0.15625 0.95
v 0.927499 0.276831 0.95
v 0.874466 0.329864 0.95
v 0.830272 0.285669 0.95
v 0.883305 0.232636 0.95
v 0.723169 0.9275 0.95
v 0.670136 0.874467 0.95
v 0.71433 0.830272 0.95
v 0.767363 0.883305 0.95
v 0.27683 0.0725 0.95
v 0.329863 0.125533 0.95
v 0.285669 0.169728 0.95
v 0.232636 0.116695 0.95
v 0.0725 0.723169 0.95
v 0.125533 0.670136 0.95
v 0.169727 0.714331 0.95
v 0.116694 0.767364 0.95
v 0.883305 0.767363 0.95
v 0.830272 0.714331 0.95
v 0.874466 0.670136 0.95
v 0.927499 0.723169 0.95
v 0.232636 0.883305 0.95
v 0.285669 0.830272 0.95
v 0.329863 0.874467 0.95
v 0.27683 0.9275 0.95
v 0.767363 0.116695 0.95
v 0.71433 0.169728 0.95
v 0.670136 0.125533 0.95
v 0.723169 0.0725 0.95
v 0.116694 0.232636 0.95
v 0.169727 0.285669 0.95
v 0.125533 0.329864 0.95
v 0.0725 0.276831 0.95
v 0.15625 0.53125 0.05
v 0.15625 0.46875 0.05
v 0.0625 0.46875 0.05
v 0.0625 0.53125 0.05
v 0.9375 0.53125 0.05
v 0.9375 0.46875 0.05
v 0.84375 0.46875 0.05
v 0.84375 0.53125 0.05
v 0.53125 0.9375 0.05
v 0.53125 0.84375 0.05
v 0.46875 0.84375 0.05
v 0.46875 0.9375 0.05
v 0.53125 0.15625 0.05
v 0.53125 0.0625 0.05
v 0.46875 0.0625 0.05
v 0.46875 0.15625 0.05
v 0.0725 0.276831 0.05
v 0.125533 0.329864 0.05
v 0.169727 0.285669 0.05
v 0.116694 0.232636 0.05
v 0.27683 0.9275 0.05
v 0.329863 0.874467 0.05
v 0.285669 0.830272 0.05
v 0.232636 0.883305 0.05
v 0.723169 0.0725 0.05
v 0.670136 0.125533 0.05
v 0.71433 0.169728 0.05
v 0.767363 0.116695 0.05
v 0.9275 0.723169 0.05
v 0.874467 0.670136 0.05
v 0.830272 0.714331 0.05
v 0.883305 0.767364 0.05
v 0.116694 0.767363 0.05
v 0.169727 0.714331 0.05
v 0.125533 0.670136 0.05
v 0.0725 0.723169 0.05
v 0.767363 0.883305 0.05
v 0.71433 0.830272 0.05
v 0.670136 0.874467 0.05
v 0.723169 0.9275 0.05
v 0.232636 0.116695 0.05
v 0.285669 0.169728 0.05
v 0.329863 0.125533 0.05
v 0.27683 0.0725 0.05
v 0.883305 0.232636 0.05
v 0.830272 0.285669 0.05
v 0.874467 0.329864 0.05
v 0.9275 0.276831 0.05
vt 0.5 0.5
vt 0.5 0.4375
vt 0.59375 0.4375
vt 0.59375 0.5
vt 0.4375 0.5
vt 0.4375 0.4375
vt 0.53125 0.4375
vt 0.53125 0.5
vt 0.5 0.5625
vt 0.5 0.46875
vt 0.5625 0.46875
vt 0.5625 0.5625
vt 0.5 0.5
vt 0.5 0.40625
vt 0.5625 0.40625
vt 0.5625 0.5
vt 0.06249940062212596 -0.012497512979599668
vt 0.06249940062212596 0.06249999999999867
vt 1.3877787807814457e-17 0.06249999999999867
vt 0 -0.012497512979599668
vt 0.07499751297959822 0.06250000000000022
vt 0 0.06250000000000022
vt 0 5.993778743329514e-7
vt 0.07499751297959817 5.993778742219291e-7
vt 5.551115123125783e-17 5.993778722235277e-7
vt 0.07499751297959822 5.993778722235277e-7
vt 0.07499751297959822 0.062499999999998224
vt 0 0.062499999999998
vt 0 0.06250000000000222
vt 1.1102230246251565e-16 -0.012497512979595893
vt 0.062499400622126 -0.012497512979595893
vt 0.06249940062212589 0.06250000000000222
vt 0.07499751297959817 0.062499999999998446
vt 0 0.06249999999999867
vt 1.1102230246251565e-16 5.993778726676169e-7
vt 0.07499751297959828 5.993778726676169e-7
vt 0 0.06250000000000222
vt 0 -0.012497512979595893
vt 0.062499400622125945 -0.01249751297959567
vt 0.06249940062212589 0.06250000000000244
vt 0.06249940062212725 -0.012497512979599446
vt 0.06249940062212725 0.06249999999999867
vt 1.3322676295501878e-15 0.06249999999999867
vt 1.304512053934559e-15 -0.012497512979599446
vt 0 5.993778742219291e-7
vt 0.07499751297959822 5.993778742219291e-7
vt 0.07499751297959817 0.06250000000000022
vt 0 0.06250000000000011
vt 0.5 0.5
vt 0.5 0.4375
vt 0.59375 0.4375
vt 0.59375 0.5
vt 0.4375 0.5
vt 0.4375 0.4375
vt 0.53125 0.4375
vt 0.53125 0.5
vt 0.5 0.5625
vt 0.5 0.46875
vt 0.5625 0.46875
vt 0.5625 0.5625
vt 0.5 0.5
vt 0.5 0.40625
vt 0.5625 0.40625
vt 0.5625 0.5
vt 0.062499400622126 -0.012497512979600556
vt 0.062499400622126 0.06249999999999767
vt 1.1102230246251565e-16 0.06249999999999767
vt 0 -0.012497512979600556
vt 0.07499751297959811 0.0625
vt 0 0.0625
vt 0 5.993778739998845e-7
vt 0.07499751297959811 5.993778739998845e-7
vt 0 5.993778711133046e-7
vt 0.07499751297959817 5.993778711133046e-7
vt 0.07499751297959817 0.06249999999999711
vt 0 0.06249999999999711
vt 0 0.06250000000000111
vt 1.1102230246251565e-16 -0.012497512979597003
vt 0.062499400622126 -0.012497512979597003
vt 0.06249940062212589 0.06250000000000111
vt 0.07499751297959811 0.062499999999997224
vt 0 0.062499999999997224
vt 2.220446049250313e-16 5.993778713353493e-7
vt 0.07499751297959834 5.993778713353493e-7
vt 0 0.06250000000000111
vt 0 -0.012497512979597225
vt 0.062499400622126 -0.012497512979597003
vt 0.06249940062212589 0.06250000000000111
vt 0.06249940062212589 -0.012497512979600778
vt 0.062499400622126 0.062499999999997335
vt 0 0.062499999999997224
vt 0 -0.012497512979601
vt 0 5.993778728896615e-7
vt 0.07499751297959822 5.993778728896615e-7
vt 0.07499751297959822 0.06249999999999889
vt 0 0.06249999999999889
vt 0.5 0.5
vt 0.5 0.4375
vt 0.59375 0.4375
vt 0.59375 0.5
vt 0.4375 0.5
vt 0.4375 0.4375
vt 0.53125 0.4375
vt 0.53125 0.5
vt 0.5 0.5625
vt 0.5 0.46875
vt 0.5625 0.46875
vt 0.5625 0.5625
vt 0.5 0.5
vt 0.5 0.40625
vt 0.5625 0.40625
vt 0.5625 0.5
vt 0.062499400622126 -0.012497512979600556
vt 0.062499400622126 0.06249999999999767
vt 1.1102230246251565e-16 0.06249999999999767
vt 0 -0.012497512979600556
vt 0.07499751297959811 0.0625
vt 0 0.0625
vt 0 5.993778739998845e-7
vt 0.07499751297959811 5.993778739998845e-7
vt 0 5.993778711133046e-7
vt 0.07499751297959817 5.993778711133046e-7
vt 0.07499751297959817 0.06249999999999711
vt 0 0.06249999999999711
vt 0 0.06250000000000111
vt 1.1102230246251565e-16 -0.012497512979597003
vt 0.062499400622126 -0.012497512979597003
vt 0.06249940062212589 0.06250000000000111
vt 0.07499751297959811 0.062499999999997224
vt 0 0.062499999999997224
vt 2.220446049250313e-16 5.993778713353493e-7
vt 0.07499751297959834 5.993778713353493e-7
vt 0 0.06250000000000111
vt 0 -0.012497512979597225
vt 0.062499400622126 -0.012497512979597003
vt 0.06249940062212589 0.06250000000000111
vt 0.06249940062212589 -0.012497512979600778
vt 0.062499400622126 0.062499999999997335
vt 0 0.062499999999997224
vt 0 -0.012497512979601
vt 0 5.993778728896615e-7
vt 0.07499751297959822 5.993778728896615e-7
vt 0.07499751297959822 0.06249999999999889
vt 0 0.06249999999999889
vt 0.5 0.5
vt 0.5 0.4375
vt 0.59375 0.4375
vt 0.59375 0.5
vt 0.4375 0.5
vt 0.4375 0.4375
vt 0.53125 0.4375
vt 0.53125 0.5
vt 0.5 0.5625
vt 0.5 0.46875
vt 0.5625 0.46875
vt 0.5625 0.5625
vt 0.5 0.5
vt 0.5 0.40625
vt 0.5625 0.40625
vt 0.5625 0.5
vt 0.06249940062212596 -0.012497512979599668
vt 0.06249940062212596 0.06249999999999867
vt 1.3877787807814457e-17 0.06249999999999867
vt 0 -0.012497512979599668
vt 0.07499751297959822 0.06250000000000022
vt 0 0.06250000000000022
vt 0 5.993778743329514e-7
vt 0.07499751297959817 5.993778742219291e-7
vt 5.551115123125783e-17 5.993778722235277e-7
vt 0.07499751297959822 5.993778722235277e-7
vt 0.07499751297959822 0.062499999999998224
vt 0 0.062499999999998
vt 0 0.06250000000000222
vt 1.1102230246251565e-16 -0.012497512979595893
vt 0.062499400622126 -0.012497512979595893
vt 0.06249940062212589 0.06250000000000222
vt 0.07499751297959817 0.062499999999998446
vt 0 0.06249999999999867
vt 1.1102230246251565e-16 5.993778726676169e-7
vt 0.07499751297959828 5.993778726676169e-7
vt 0 0.06250000000000222
vt 0 -0.012497512979595893
vt 0.062499400622125945 -0.01249751297959567
vt 0.06249940062212589 0.06250000000000244
vt 0.06249940062212725 -0.012497512979599446
vt 0.06249940062212725 0.06249999999999867
vt 1.3322676295501878e-15 0.06249999999999867
vt 1.304512053934559e-15 -0.012497512979599446
vt 0 5.993778742219291e-7
vt 0.07499751297959822 5.993778742219291e-7
vt 0.07499751297959817 0.06250000000000022
vt 0 0.06250000000000011
vn 1 0 0
vn 1 0 0
vn 1 0 0
vn 1 0 0
vn 1 0 0
vn 1 0 0
vn 1 0 0
vn 1 0 0
vn 1 0 0
vn 1 0 0
vn 1 0 0
vn 1 0 0
vn -1 0 0
vn -1 0 0
vn -1 0 0
vn -1 0 0
vn -1 0 0
vn -1 0 0
vn -1 0 0
vn -1 0 0
vn -1 0 0
vn -1 0 0
vn -1 0 0
vn -1 0 0
vn 0 0 1
vn 0 0 1
vn 0 0 1
vn 0 0 1
vn 0 0 1
vn 0 0 1
vn 0 0 1
vn 0 0 1
vn 0 0 1
vn 0 0 1
vn 0 0 1
vn 0 0 1
vn 0 0 -1
vn 0 0 -1
vn 0 0 -1
vn 0 0 -1
vn 0 0 -1
vn 0 0 -1
vn 0 0 -1
vn 0 0 -1
vn 0 0 -1
vn 0 0 -1
vn 0 0 -1
vn 0 0 -1
usemtl m_d80f1448-4de7-2f3b-de90-526768eb945e
f 115/505/133 116/506/133 117/507/133 118/508/133
f 119/509/134 120/510/134 121/511/134 122/512/134
f 123/513/135 124/514/135 125/515/135 126/516/135
f 127/517/136 128/518/136 129/519/136 130/520/136
f 131/521/137 132/522/137 133/523/137 134/524/137
f 135/525/138 136/526/138 137/527/138 138/528/138
f 139/529/139 140/530/139 141/531/139 142/532/139
f 143/533/140 144/534/140 145/535/140 146/536/140
f 147/537/141 148/538/141 149/539/141 150/540/141
f 151/541/142 152/542/142 153/543/142 154/544/142
f 155/545/143 156/546/143 157/547/143 158/548/143
f 159/549/144 160/550/144 161/551/144 162/552/144
f 163/553/145 164/554/145 165/555/145 166/556/145
f 167/557/146 168/558/146 169/559/146 170/560/146
f 171/561/147 172/562/147 173/563/147 174/564/147
f 175/565/148 176/566/148 177/567/148 178/568/148
f 179/569/149 180/570/149 181/571/149 182/572/149
f 183/573/150 184/574/150 185/575/150 186/576/150
f 187/577/151 188/578/151 189/579/151 190/580/151
f 191/581/152 192/582/152 193/583/152 194/584/152
f 195/585/153 196/586/153 197/587/153 198/588/153
f 199/589/154 200/590/154 201/591/154 202/592/154
f 203/593/155 204/594/155 205/595/155 206/596/155
f 207/597/156 208/598/156 209/599/156 210/600/156
f 211/601/157 212/602/157 213/603/157 214/604/157
f 215/605/158 216/606/158 217/607/158 218/608/158
f 219/609/159 220/610/159 221/611/159 222/612/159
f 223/613/160 224/614/160 225/615/160 226/616/160
f 227/617/161 228/618/161 229/619/161 230/620/161
f 231/621/162 232/622/162 233/623/162 234/624/162
f 235/625/163 236/626/163 237/627/163 238/628/163
f 239/629/164 240/630/164 241/631/164 242/632/164
f 243/633/165 244/634/165 245/635/165 246/636/165
f 247/637/166 248/638/166 249/639/166 250/640/166
f 251/641/167 252/642/167 253/643/167 254/644/167
f 255/645/168 256/646/168 257/647/168 258/648/168
f 259/649/169 260/650/169 261/651/169 262/652/169
f 263/653/170 264/654/170 265/655/170 266/656/170
f 267/657/171 268/658/171 269/659/171 270/660/171
f 271/661/172 272/662/172 273/663/172 274/664/172
f 275/665/173 276/666/173 277/667/173 278/668/173
f 279/669/174 280/670/174 281/671/174 282/672/174
f 283/673/175 284/674/175 285/675/175 286/676/175
f 287/677/176 288/678/176 289/679/176 290/680/176
f 291/681/177 292/682/177 293/683/177 294/684/177
f 295/685/178 296/686/178 297/687/178 298/688/178
f 299/689/179 300/690/179 301/691/179 302/692/179
f 303/693/180 304/694/180 305/695/180 306/696/180